<svg width="27" height="27" viewBox="0 0 27 27" fill="none" xmlns="http://www.w3.org/2000/svg">
<g id="ph:t-shirt" clip-path="url(#clip0_3599_34591)">
<path id="Vector" d="M25.6445 6.71766L20.3876 3.85156C20.2685 3.78566 20.1347 3.75073 19.9986 3.75H16.7486C16.5331 3.75 16.3265 3.8356 16.1741 3.98798C16.0217 4.14035 15.9361 4.34701 15.9361 4.5625C15.9361 5.20897 15.6793 5.82895 15.2222 6.28607C14.7651 6.74319 14.1451 7 13.4986 7C12.8521 7 12.2322 6.74319 11.775 6.28607C11.3179 5.82895 11.0611 5.20897 11.0611 4.5625C11.0611 4.34701 10.9755 4.14035 10.8231 3.98798C10.6708 3.8356 10.4641 3.75 10.2486 3.75H6.99861C6.86214 3.75056 6.72802 3.78549 6.60861 3.85156L1.35275 6.71766C0.978088 6.91566 0.697232 7.25415 0.571766 7.65891C0.446301 8.06368 0.486466 8.50168 0.683454 8.87688L2.64056 12.6154C2.78287 12.8842 2.99617 13.1088 3.25726 13.2647C3.51835 13.4207 3.81722 13.5021 4.12134 13.5H6.18611V21.625C6.18611 22.056 6.35732 22.4693 6.66206 22.774C6.96681 23.0788 7.38013 23.25 7.81111 23.25H19.1861C19.6171 23.25 20.0304 23.0788 20.3352 22.774C20.6399 22.4693 20.8111 22.056 20.8111 21.625V13.5H22.8769C23.181 13.5021 23.4799 13.4207 23.741 13.2647C24.0021 13.1088 24.2154 12.8842 24.3577 12.6154L26.3148 8.87688C26.5117 8.50156 26.5517 8.06346 26.426 7.65868C26.3004 7.2539 26.0193 6.91548 25.6445 6.71766ZM4.12134 11.875C4.10633 11.8757 4.09156 11.871 4.0797 11.8618L2.13275 8.14359L6.18611 5.93156V11.875H4.12134ZM19.1861 21.625H7.81111V5.375H9.51736C9.70482 6.29227 10.2033 7.11664 10.9286 7.70868C11.6539 8.30072 12.5614 8.62409 13.4976 8.62409C14.4338 8.62409 15.3413 8.30072 16.0666 7.70868C16.7919 7.11664 17.2904 6.29227 17.4778 5.375H19.1861V21.625ZM22.9185 11.8608C22.9129 11.8658 22.9063 11.8697 22.8992 11.8722C22.892 11.8746 22.8844 11.8756 22.8769 11.875H20.8111V5.93156L24.8655 8.14359L22.9185 11.8608Z" fill="white"/>
</g>
<defs>
<clipPath id="clip0_3599_34591">
<rect width="26" height="26" fill="white" transform="translate(0.5 0.5)"/>
</clipPath>
</defs>
</svg>
