<svg width="24" height="24" viewBox="0 0 24 24" fill="none" xmlns="http://www.w3.org/2000/svg">
  <path
    d="M11.4405 2C8.87693 2.00731 6.41404 2.99891 4.56055 4.77V3C4.56055 2.73478 4.45519 2.48043 4.26765 2.29289C4.08012 2.10536 3.82576 2 3.56055 2C3.29533 2 3.04098 2.10536 2.85344 2.29289C2.6659 2.48043 2.56055 2.73478 2.56055 3V7.5C2.56055 7.76522 2.6659 8.01957 2.85344 8.20711C3.04098 8.39464 3.29533 8.5 3.56055 8.5H8.06055C8.32576 8.5 8.58012 8.39464 8.76765 8.20711C8.95519 8.01957 9.06055 7.76522 9.06055 7.5C9.06055 7.23478 8.95519 6.98043 8.76765 6.79289C8.58012 6.60536 8.32576 6.5 8.06055 6.5H5.66055C6.57226 5.53701 7.70905 4.81576 8.96868 4.40114C10.2283 3.98651 11.5712 3.89152 12.8767 4.1247C14.1821 4.35788 15.4091 4.91193 16.4473 5.73699C17.4855 6.56205 18.3023 7.63226 18.8243 8.85133C19.3462 10.0704 19.5569 11.4001 19.4374 12.7208C19.318 14.0415 18.872 15.3118 18.1398 16.4174C17.4076 17.5231 16.412 18.4293 15.2426 19.0547C14.0732 19.68 12.7666 20.0049 11.4405 20C11.1753 20 10.921 20.1054 10.7334 20.2929C10.5459 20.4804 10.4405 20.7348 10.4405 21C10.4405 21.2652 10.5459 21.5196 10.7334 21.7071C10.921 21.8946 11.1753 22 11.4405 22C14.0927 22 16.6363 20.9464 18.5116 19.0711C20.387 17.1957 21.4405 14.6522 21.4405 12C21.4405 9.34784 20.387 6.8043 18.5116 4.92893C16.6363 3.05357 14.0927 2 11.4405 2ZM11.4405 8C11.1753 8 10.921 8.10536 10.7334 8.29289C10.5459 8.48043 10.4405 8.73478 10.4405 9V12C10.4405 12.2652 10.5459 12.5196 10.7334 12.7071C10.921 12.8946 11.1753 13 11.4405 13H13.4405C13.7058 13 13.9601 12.8946 14.1477 12.7071C14.3352 12.5196 14.4405 12.2652 14.4405 12C14.4405 11.7348 14.3352 11.4804 14.1477 11.2929C13.9601 11.1054 13.7058 11 13.4405 11H12.4405V9C12.4405 8.73478 12.3352 8.48043 12.1477 8.29289C11.9601 8.10536 11.7058 8 11.4405 8Z"
    fill="#8A8A99" />
</svg>