<svg width="20" height="24" viewBox="0 0 20 24" fill="none" xmlns="http://www.w3.org/2000/svg">
<g id="credit card / 24 / Outline">
<path id="Vector" d="M5.83268 15H8.33268C8.5537 15 8.76566 14.8946 8.92194 14.7071C9.07822 14.5196 9.16602 14.2652 9.16602 14C9.16602 13.7348 9.07822 13.4804 8.92194 13.2929C8.76566 13.1054 8.5537 13 8.33268 13H5.83268C5.61167 13 5.39971 13.1054 5.24343 13.2929C5.08715 13.4804 4.99935 13.7348 4.99935 14C4.99935 14.2652 5.08715 14.5196 5.24343 14.7071C5.39971 14.8946 5.61167 15 5.83268 15ZM15.8327 5H4.16602C3.50297 5 2.86709 5.31607 2.39825 5.87868C1.92941 6.44129 1.66602 7.20435 1.66602 8V17C1.66602 17.7956 1.92941 18.5587 2.39825 19.1213C2.86709 19.6839 3.50297 20 4.16602 20H15.8327C16.4957 20 17.1316 19.6839 17.6005 19.1213C18.0693 18.5587 18.3327 17.7956 18.3327 17V8C18.3327 7.20435 18.0693 6.44129 17.6005 5.87868C17.1316 5.31607 16.4957 5 15.8327 5ZM16.666 17C16.666 17.2652 16.5782 17.5196 16.4219 17.7071C16.2657 17.8946 16.0537 18 15.8327 18H4.16602C3.945 18 3.73304 17.8946 3.57676 17.7071C3.42048 17.5196 3.33268 17.2652 3.33268 17V11H16.666V17ZM16.666 9H3.33268V8C3.33268 7.73478 3.42048 7.48043 3.57676 7.29289C3.73304 7.10536 3.945 7 4.16602 7H15.8327C16.0537 7 16.2657 7.10536 16.4219 7.29289C16.5782 7.48043 16.666 7.73478 16.666 8V9Z" fill="#8A8A99"/>
</g>
</svg>
