<svg width="16" height="16" viewBox="0 0 16 16" fill="none" xmlns="http://www.w3.org/2000/svg">
<g id="increase money / 24 / Outline">
<path id="Vector" d="M6.97268 4.00001L7.33268 3.60668V6.00001C7.33268 6.17682 7.40292 6.34639 7.52794 6.47142C7.65297 6.59644 7.82254 6.66668 7.99935 6.66668C8.17616 6.66668 8.34573 6.59644 8.47075 6.47142C8.59578 6.34639 8.66602 6.17682 8.66602 6.00001V3.60668L9.02602 3.97335C9.08653 4.04169 9.16044 4.09689 9.24316 4.1355C9.32588 4.17412 9.41564 4.19533 9.5069 4.19783C9.59815 4.20033 9.68895 4.18406 9.77365 4.15003C9.85836 4.11601 9.93518 4.06494 9.99935 4.00001C10.0618 3.93804 10.1114 3.8643 10.1453 3.78306C10.1791 3.70182 10.1965 3.61469 10.1965 3.52668C10.1965 3.43867 10.1791 3.35153 10.1453 3.27029C10.1114 3.18905 10.0618 3.11532 9.99935 3.05335L8.47268 1.52668C8.40928 1.46599 8.33452 1.41841 8.25268 1.38668C8.09037 1.32 7.90832 1.32 7.74602 1.38668C7.66418 1.41841 7.58942 1.46599 7.52602 1.52668L5.99935 3.02668C5.87028 3.15575 5.79776 3.33081 5.79776 3.51335C5.79776 3.69588 5.87028 3.87094 5.99935 4.00001C6.12842 4.12908 6.30348 4.2016 6.48601 4.2016C6.66855 4.2016 6.84361 4.12908 6.97268 4.00001ZM7.99935 8.00001C7.60379 8.00001 7.21711 8.11731 6.88821 8.33707C6.55931 8.55684 6.30296 8.86919 6.15159 9.23465C6.00021 9.6001 5.96061 10.0022 6.03778 10.3902C6.11495 10.7782 6.30543 11.1345 6.58513 11.4142C6.86484 11.6939 7.22121 11.8844 7.60917 11.9616C7.99713 12.0388 8.39926 11.9991 8.76472 11.8478C9.13017 11.6964 9.44252 11.4401 9.66229 11.1112C9.88205 10.7823 9.99935 10.3956 9.99935 10C9.99935 9.46958 9.78864 8.96087 9.41356 8.5858C9.03849 8.21073 8.52978 8.00001 7.99935 8.00001ZM7.99935 10.6667C7.86749 10.6667 7.7386 10.6276 7.62897 10.5543C7.51934 10.4811 7.43389 10.377 7.38343 10.2551C7.33297 10.1333 7.31977 9.99927 7.34549 9.86995C7.37122 9.74063 7.43471 9.62184 7.52794 9.52861C7.62118 9.43537 7.73997 9.37188 7.86929 9.34616C7.99861 9.32043 8.13265 9.33363 8.25447 9.38409C8.37629 9.43455 8.48041 9.52 8.55366 9.62963C8.62692 9.73926 8.66602 9.86816 8.66602 10C8.66602 10.1768 8.59578 10.3464 8.47075 10.4714C8.34573 10.5964 8.17616 10.6667 7.99935 10.6667ZM3.33268 10C3.33268 10.1319 3.37178 10.2608 3.44504 10.3704C3.51829 10.48 3.62241 10.5655 3.74423 10.6159C3.86604 10.6664 4.00009 10.6796 4.12941 10.6539C4.25873 10.6281 4.37752 10.5647 4.47075 10.4714C4.56399 10.3782 4.62748 10.2594 4.65321 10.1301C4.67893 10.0008 4.66573 9.86671 4.61527 9.74489C4.56481 9.62307 4.47936 9.51895 4.36973 9.4457C4.2601 9.37245 4.1312 9.33335 3.99935 9.33335C3.82254 9.33335 3.65297 9.40358 3.52794 9.52861C3.40292 9.65363 3.33268 9.8232 3.33268 10ZM12.666 10C12.666 9.86816 12.6269 9.73926 12.5537 9.62963C12.4804 9.52 12.3763 9.43455 12.2545 9.38409C12.1327 9.33363 11.9986 9.32043 11.8693 9.34616C11.74 9.37188 11.6212 9.43537 11.5279 9.52861C11.4347 9.62184 11.3712 9.74063 11.3455 9.86995C11.3198 9.99927 11.333 10.1333 11.3834 10.2551C11.4339 10.377 11.5193 10.4811 11.629 10.5543C11.7386 10.6276 11.8675 10.6667 11.9993 10.6667C12.1762 10.6667 12.3457 10.5964 12.4708 10.4714C12.5958 10.3464 12.666 10.1768 12.666 10ZM13.3327 5.33335H10.666C10.4892 5.33335 10.3196 5.40358 10.1946 5.52861C10.0696 5.65363 9.99935 5.8232 9.99935 6.00001C9.99935 6.17682 10.0696 6.34639 10.1946 6.47142C10.3196 6.59644 10.4892 6.66668 10.666 6.66668H13.3327C13.5095 6.66668 13.6791 6.73692 13.8041 6.86194C13.9291 6.98697 13.9993 7.15653 13.9993 7.33335V12.6667C13.9993 12.8435 13.9291 13.0131 13.8041 13.1381C13.6791 13.2631 13.5095 13.3333 13.3327 13.3333H2.66602C2.4892 13.3333 2.31964 13.2631 2.19461 13.1381C2.06959 13.0131 1.99935 12.8435 1.99935 12.6667V7.33335C1.99935 7.15653 2.06959 6.98697 2.19461 6.86194C2.31964 6.73692 2.4892 6.66668 2.66602 6.66668H5.33268C5.50949 6.66668 5.67906 6.59644 5.80409 6.47142C5.92911 6.34639 5.99935 6.17682 5.99935 6.00001C5.99935 5.8232 5.92911 5.65363 5.80409 5.52861C5.67906 5.40358 5.50949 5.33335 5.33268 5.33335H2.66602C2.13558 5.33335 1.62687 5.54406 1.2518 5.91913C0.876729 6.2942 0.666016 6.80291 0.666016 7.33335V12.6667C0.666016 13.1971 0.876729 13.7058 1.2518 14.0809C1.62687 14.456 2.13558 14.6667 2.66602 14.6667H13.3327C13.8631 14.6667 14.3718 14.456 14.7469 14.0809C15.122 13.7058 15.3327 13.1971 15.3327 12.6667V7.33335C15.3327 6.80291 15.122 6.2942 14.7469 5.91913C14.3718 5.54406 13.8631 5.33335 13.3327 5.33335Z" fill="black"/>
</g>
</svg>
