<svg width="141" height="57" viewBox="0 0 141 57" fill="none" xmlns="http://www.w3.org/2000/svg">
<path d="M80.5259 0.65783C79.4593 1.01339 78.2859 2.0682 77.8474 3.06376C76.8163 5.37487 77.7881 7.99413 80.0874 9.07265C80.7985 9.4045 81 9.4519 81.9481 9.4519C82.8963 9.4519 83.0978 9.4045 83.8089 9.07265C86.0963 7.99413 87.08 5.37487 86.0489 3.0519C85.717 2.30524 84.7452 1.32153 83.9393 0.906718C83.3585 0.622274 83.1096 0.563015 82.1259 0.539311C81.4267 0.515607 80.8222 0.563015 80.5259 0.65783Z" fill="black"/>
<path d="M96.6921 0.728889C95.5069 1.20296 94.6772 1.99704 94.1202 3.20593C93.8595 3.76296 93.8121 4.04741 93.8002 4.88889C93.8002 6.09778 94.0254 6.83259 94.6654 7.67407C96.7039 10.3644 100.864 9.96148 102.357 6.92741C102.654 6.31111 102.689 6.13333 102.689 5.00741C102.689 3.83407 102.665 3.7037 102.31 2.98074C101.848 2.04444 101.101 1.32148 100.165 0.882963C99.2639 0.456296 97.5335 0.385185 96.6921 0.728889Z" fill="black"/>
<path d="M14.3927 12.6636C8.4668 13.4696 4.33051 16.4444 2.60014 21.1733C1.71125 23.6029 1.58088 26.5066 2.25643 28.9481C3.26384 32.5866 6.44014 35.5733 10.7305 36.9244C11.2638 37.0903 13.7409 37.7422 16.2416 38.3703C21.5987 39.7214 22.369 39.9585 23.6846 40.5985C25.4387 41.4637 26.3038 42.7318 26.3038 44.4385C26.3038 46.2044 25.3083 47.8044 23.6964 48.6222C20.7216 50.1392 15.732 50.0207 12.8164 48.3733C11.8564 47.8281 10.6831 46.5955 10.209 45.6355C9.85347 44.9125 9.58088 43.9762 9.41495 42.8977L9.34384 42.4592H5.08902H0.822357V42.957C0.822357 43.2414 0.90532 43.9762 1.00013 44.5925C2.07865 51.3125 7.03273 55.5674 15.009 56.6222C16.8461 56.8711 20.4609 56.8711 22.2979 56.6222C29.1009 55.7214 33.6046 52.2962 34.9675 46.9866C35.2994 45.6829 35.4416 43.7985 35.2994 42.3762C34.8372 37.4814 31.8861 34.1511 26.3038 32.2074C25.6164 31.9703 22.8075 31.2237 20.0461 30.5481C14.9024 29.2681 13.7053 28.9007 12.6742 28.237C10.209 26.6607 9.94828 23.4251 12.1053 21.4103C13.5275 20.0711 16.3127 19.3718 18.9557 19.7036C22.9498 20.2014 25.4031 22.3585 26.1261 26.0207L26.1853 26.3407L30.4283 26.317L34.6594 26.2814L34.6238 25.8074C34.5646 24.954 34.2564 23.4488 33.9364 22.4888C32.8224 19.0399 30.2979 16.1718 26.9083 14.4651C25.0831 13.5525 22.6179 12.8533 20.2357 12.6044C18.695 12.4266 15.8505 12.4622 14.3927 12.6636Z" fill="black"/>
<path d="M38.8667 17.3334V21.2445H45.2074H51.5482V38.3704V55.4963H55.9334H60.3186V38.3704V21.2445H66.6H72.8815V17.3334V13.4223H55.8741H38.8667V17.3334Z" fill="black"/>
<path d="M77.8593 34.4593V55.4963H82.2445H86.6297V34.4593V13.4223H82.2445H77.8593V34.4593Z" fill="black"/>
<path d="M94.3336 34.4593V55.4963H98.7187H103.104V34.4593V13.4223H98.7187H94.3336V34.4593Z" fill="black"/>
<path d="M110.808 34.4593V55.4963H125.445H140.082V51.5852V47.6741H129.83H119.578V30.5482V13.4223H115.193H110.808V34.4593Z" fill="black"/>
</svg>
