<svg width="20" height="20" viewBox="0 0 20 20" fill="none" xmlns="http://www.w3.org/2000/svg">
<g id="No Preview / 24 / Outline">
<path id="Vector" d="M9.11747 5.06662C9.40977 5.02181 9.70509 4.99952 10.0008 4.99995C12.6508 4.99995 15.1425 6.90828 16.5925 9.99995C16.3707 10.4704 16.1202 10.9269 15.8425 11.3666C15.7543 11.5031 15.7079 11.6624 15.7091 11.825C15.711 12.0068 15.7723 12.1831 15.8837 12.3268C15.9951 12.4706 16.1505 12.574 16.3261 12.6212C16.5017 12.6684 16.688 12.6569 16.8565 12.5883C17.0249 12.5198 17.1663 12.398 17.2591 12.2416C17.6474 11.6316 17.9847 10.9905 18.2675 10.325C18.3122 10.221 18.3352 10.109 18.3352 9.99578C18.3352 9.8826 18.3122 9.7706 18.2675 9.66662C16.5841 5.75828 13.4175 3.33328 10.0008 3.33328C9.60969 3.33131 9.21921 3.36478 8.83414 3.43328C8.7247 3.45189 8.62 3.49186 8.52602 3.55093C8.43203 3.61 8.3506 3.687 8.28638 3.77754C8.22215 3.86807 8.17638 3.97037 8.15169 4.0786C8.127 4.18682 8.12387 4.29885 8.14247 4.40828C8.16108 4.51772 8.20105 4.62242 8.26012 4.7164C8.31919 4.81039 8.39619 4.89182 8.48672 4.95605C8.57726 5.02027 8.67956 5.06604 8.78779 5.09073C8.89601 5.11542 9.00804 5.11855 9.11747 5.09995V5.06662ZM3.09247 1.90828C3.01477 1.83059 2.92253 1.76895 2.82101 1.7269C2.71949 1.68485 2.61069 1.66321 2.50081 1.66321C2.39092 1.66321 2.28212 1.68485 2.1806 1.7269C2.07908 1.76895 1.98684 1.83059 1.90914 1.90828C1.75222 2.0652 1.66406 2.27803 1.66406 2.49995C1.66406 2.72187 1.75222 2.9347 1.90914 3.09162L4.49247 5.66662C3.31378 6.80122 2.37569 8.16161 1.73414 9.66662C1.68825 9.77176 1.66457 9.88524 1.66457 9.99995C1.66457 10.1147 1.68825 10.2281 1.73414 10.3333C3.41747 14.2416 6.58414 16.6666 10.0008 16.6666C11.4984 16.6563 12.9606 16.2104 14.2091 15.3833L16.9091 18.0916C16.9866 18.1697 17.0788 18.2317 17.1803 18.274C17.2819 18.3163 17.3908 18.3381 17.5008 18.3381C17.6108 18.3381 17.7197 18.3163 17.8213 18.274C17.9228 18.2317 18.015 18.1697 18.0925 18.0916C18.1706 18.0141 18.2326 17.922 18.2749 17.8204C18.3172 17.7189 18.339 17.61 18.339 17.5C18.339 17.3899 18.3172 17.281 18.2749 17.1795C18.2326 17.0779 18.1706 16.9858 18.0925 16.9083L3.09247 1.90828ZM8.39247 9.56662L10.4341 11.6083C10.2933 11.6487 10.1473 11.6683 10.0008 11.6666C9.55878 11.6666 9.13485 11.491 8.82229 11.1785C8.50973 10.8659 8.33414 10.442 8.33414 9.99995C8.33243 9.85344 8.35208 9.70746 8.39247 9.56662ZM10.0008 15C7.35081 15 4.85914 13.0916 3.41747 9.99995C3.95588 8.81141 4.72003 7.73877 5.66747 6.84162L7.14247 8.33328C6.79601 8.96561 6.66392 9.69324 6.76602 10.407C6.86812 11.1208 7.1989 11.7822 7.70874 12.292C8.21859 12.8019 8.88 13.1326 9.59376 13.2347C10.3075 13.3368 11.0351 13.2047 11.6675 12.8583L12.9925 14.1666C12.085 14.7007 11.0537 14.988 10.0008 15Z" fill="#8A8A99"/>
</g>
</svg>
