<svg width="24" height="24" viewBox="0 0 24 24" fill="none" xmlns="http://www.w3.org/2000/svg">
  <path
    d="M19.7778 17.1429V11.2C19.2222 11.3143 18.6667 11.4286 18.1111 11.4286H17.5556V18.2857H6.44444V10.2857C6.44444 7.08571 8.88889 4.57143 12 4.57143C12.1111 3.08571 12.7778 1.82857 13.6667 0.8C13.3333 0.342857 12.6667 0 12 0C10.7778 0 9.77778 1.02857 9.77778 2.28571V2.62857C6.44444 3.65714 4.22222 6.74286 4.22222 10.2857V17.1429L2 19.4286V20.5714H22V19.4286L19.7778 17.1429ZM9.77778 21.7143C9.77778 22.9714 10.7778 24 12 24C13.2222 24 14.2222 22.9714 14.2222 21.7143H9.77778Z"
    fill="#1B1D1F" />
  <path
    d="M22 5C22 7.17143 20.1714 9 18 9C15.8286 9 14 7.17143 14 5C14 2.82857 15.8286 1 18 1C20.1714 1 22 2.82857 22 5Z"
    fill="#FF2D1D" />
</svg>