<svg width="44" height="44" viewBox="0 0 44 44" fill="none" xmlns="http://www.w3.org/2000/svg">
<g id="Group 20748">
<path id="Subtract" fill-rule="evenodd" clip-rule="evenodd" d="M0.625 22C0.625 10.1903 10.1903 0.625 22 0.625C33.8097 0.625 43.375 10.1903 43.375 22C43.375 33.8097 33.8097 43.375 22 43.375C10.1903 43.375 0.625 33.8097 0.625 22ZM22 12.3813C22.8854 12.3813 23.6031 13.099 23.6031 13.9844V20.3969H30.0156C30.901 20.3969 31.6188 21.1146 31.6188 22C31.6188 22.8854 30.901 23.6031 30.0156 23.6031H23.6031V30.0156C23.6031 30.901 22.8854 31.6188 22 31.6188C21.1146 31.6188 20.3969 30.901 20.3969 30.0156V23.6031H13.9844C13.099 23.6031 12.3813 22.8854 12.3813 22C12.3813 21.1146 13.099 20.3969 13.9844 20.3969H20.3969V13.9844C20.3969 13.099 21.1146 12.3813 22 12.3813Z" fill="#8A8A99"/>
</g>
</svg>
