<svg width="16" height="16" viewBox="0 0 16 16" fill="none" xmlns="http://www.w3.org/2000/svg">
  <path fill-rule="evenodd" clip-rule="evenodd"
    d="M12.8898 10.7583L15.5581 13.4366C15.8279 13.7064 15.9978 14.0862 15.9978 14.4959C15.9978 15.3254 15.3282 15.995 14.4988 15.995C14.089 15.995 13.7092 15.8251 13.4394 15.5553L10.7611 12.887C9.68177 13.5765 8.39257 13.9963 7.00344 13.9963C3.13586 13.9963 0.0078125 10.8682 0.0078125 7.00063C0.0078125 3.13305 3.13586 0.00500488 7.00344 0.00500488C10.871 0.00500488 13.9991 3.13305 13.9991 7.00063C13.9991 8.37977 13.5893 9.66896 12.8898 10.7583ZM2.00656 7.00063C2.00656 9.75891 4.24516 11.9975 7.00344 11.9975C9.76172 11.9975 12.0003 9.75891 12.0003 7.00063C12.0003 4.24236 9.76172 2.00376 7.00344 2.00376C4.24516 2.00376 2.00656 4.24236 2.00656 7.00063Z"
    fill="#8A8A99" />
</svg>