<svg width="24" height="24" viewBox="0 0 24 24" fill="none" xmlns="http://www.w3.org/2000/svg">
<g id="layers / 24 / Outline">
<path id="Vector" d="M21 1.99988H9C8.73478 1.99988 8.48043 2.10523 8.29289 2.29277C8.10536 2.48031 8 2.73466 8 2.99988V6.99988H6C5.73478 6.99988 5.48043 7.10524 5.29289 7.29277C5.10536 7.48031 5 7.73466 5 7.99988V11.9999H3C2.73478 11.9999 2.48043 12.1052 2.29289 12.2928C2.10536 12.4803 2 12.7347 2 12.9999V20.9999C2 21.2651 2.10536 21.5194 2.29289 21.707C2.48043 21.8945 2.73478 21.9999 3 21.9999H11C11.2652 21.9999 11.5196 21.8945 11.7071 21.707C11.8946 21.5194 12 21.2651 12 20.9999V18.9999H16C16.2652 18.9999 16.5196 18.8945 16.7071 18.707C16.8946 18.5194 17 18.2651 17 17.9999V15.9999H21C21.2652 15.9999 21.5196 15.8945 21.7071 15.707C21.8946 15.5194 22 15.2651 22 14.9999V2.99988C22 2.73466 21.8946 2.48031 21.7071 2.29277C21.5196 2.10523 21.2652 1.99988 21 1.99988ZM10 19.9999H4V13.9999H10V19.9999ZM15 16.9999H12V12.9999C12 12.7347 11.8946 12.4803 11.7071 12.2928C11.5196 12.1052 11.2652 11.9999 11 11.9999H7V8.99988H15V16.9999ZM20 13.9999H17V7.99988C17 7.73466 16.8946 7.48031 16.7071 7.29277C16.5196 7.10524 16.2652 6.99988 16 6.99988H10V3.99988H20V13.9999Z" fill="#1B1D1F"/>
</g>
</svg>
