<svg width="20" height="24" viewBox="0 0 20 24" fill="none" xmlns="http://www.w3.org/2000/svg">
<g id="solar:settings-linear">
<path id="Vector" d="M16.1965 6.44642L15.7732 7.57114L15.3498 6.44642C15.2446 6.1671 15.043 5.93461 14.7814 5.791L13.5224 5.1L14.7814 4.409C15.043 4.26539 15.2446 4.0329 15.3498 3.75358L15.7732 2.62886L16.1965 3.75358C16.3017 4.0329 16.5033 4.26539 16.765 4.409L18.0239 5.1L16.765 5.791C16.5033 5.93461 16.3017 6.1671 16.1965 6.44642ZM16.1965 20.2464L15.7732 21.3711L15.3498 20.2464C15.2446 19.9671 15.043 19.7346 14.7814 19.591L13.5224 18.9L14.7814 18.209C15.043 18.0654 15.2446 17.8329 15.3498 17.5536L15.7732 16.4289L16.1965 17.5536C16.3017 17.8329 16.5033 18.0654 16.765 18.209L18.0239 18.9L16.765 19.591C16.5033 19.7346 16.3017 19.9671 16.1965 20.2464ZM7.80109 18.4496L6.42121 14.7839C6.31606 14.5046 6.11443 14.2721 5.85279 14.1285L2.37407 12.2192C2.20112 12.1242 2.20112 11.8758 2.37407 11.7808L5.85279 9.8715C6.11443 9.72789 6.31606 9.4954 6.42121 9.21608L7.80109 5.55041C7.88236 5.33451 8.18776 5.33451 8.26903 5.55041L9.64892 9.21608C9.75407 9.4954 9.95569 9.72789 10.2173 9.8715L13.6961 11.7808C13.869 11.8758 13.869 12.1242 13.6961 12.2192L10.2173 14.1285C9.95569 14.2721 9.75407 14.5046 9.64892 14.7839L8.26903 18.4496C8.18776 18.6655 7.88237 18.6655 7.80109 18.4496Z" stroke="#8A8A99" stroke-width="1.5"/>
</g>
</svg>
