<svg width="16" height="16" viewBox="0 0 16 16" fill="none" xmlns="http://www.w3.org/2000/svg">
<g id="03 Interface/calendar">
<path id="Shape" fill-rule="evenodd" clip-rule="evenodd" d="M10.9549 3.86668C11.4616 3.86668 11.7993 3.44445 11.7993 3.02223V2.17779C11.7993 1.67112 11.4616 1.33334 10.9549 1.33334C10.4482 1.33334 10.1105 1.67112 10.1105 2.17779V3.02223C10.1105 3.44445 10.4482 3.86668 10.9549 3.86668ZM13.4882 2.17779H12.6438V3.02223C12.6438 3.95112 11.8838 4.71112 10.9549 4.71112C10.026 4.71112 9.26602 3.95112 9.26602 3.02223V2.17779H6.73268V3.02223C6.73268 3.95112 5.97268 4.71112 5.04379 4.71112C4.1149 4.71112 3.3549 3.95112 3.3549 3.02223V2.17779H2.51046C2.00379 2.17779 1.66602 2.60001 1.66602 3.02223V13.1556C1.66602 13.6622 2.00379 14 2.51046 14H13.4882C13.9949 14 14.3327 13.6622 14.3327 13.1556V3.02223C14.3327 2.51557 13.9105 2.17779 13.4882 2.17779ZM5.88783 12.3111H3.35449V9.7778H5.88783V12.3111ZM5.88783 8.93333H3.35449V6.39999H5.88783V8.93333ZM9.26575 12.3111H6.73242V9.7778H9.26575V12.3111ZM9.26575 8.93333H6.73242V6.39999H9.26575V8.93333ZM12.6438 12.3111H10.1105V9.77779H12.6438V12.3111ZM12.6438 8.93334H10.1105V6.40001H12.6438V8.93334ZM5.04379 3.86668C5.55046 3.86668 5.88824 3.44445 5.88824 3.02223V2.17779C5.88824 1.67112 5.55046 1.33334 5.04379 1.33334C4.53713 1.33334 4.19935 1.67112 4.19935 2.17779V3.02223C4.19935 3.44445 4.53713 3.86668 5.04379 3.86668Z" fill="white"/>
</g>
</svg>
