<svg width="14" height="15" viewBox="0 0 14 15" fill="none" xmlns="http://www.w3.org/2000/svg">
<g id="Vector">
<path id="Vector_2" d="M2.1 11.702H5.068C5.16012 11.7026 5.25145 11.6849 5.33673 11.6501C5.42202 11.6152 5.49959 11.5639 5.565 11.499L10.409 6.64804L12.397 4.70204C12.4626 4.63697 12.5147 4.55955 12.5502 4.47425C12.5858 4.38895 12.6041 4.29745 12.6041 4.20504C12.6041 4.11264 12.5858 4.02114 12.5502 3.93584C12.5147 3.85054 12.4626 3.77312 12.397 3.70804L9.429 0.705045C9.36393 0.639435 9.28651 0.587359 9.2012 0.551821C9.1159 0.516283 9.02441 0.497986 8.932 0.497986C8.83959 0.497986 8.7481 0.516283 8.6628 0.551821C8.57749 0.587359 8.50007 0.639435 8.435 0.705045L6.461 2.68604L1.603 7.53704C1.53812 7.60245 1.4868 7.68002 1.45196 7.76531C1.41712 7.8506 1.39947 7.94192 1.4 8.03404V11.002C1.4 11.1877 1.47375 11.3657 1.60503 11.497C1.7363 11.6283 1.91435 11.702 2.1 11.702ZM8.932 2.18904L10.913 4.17004L9.919 5.16404L7.938 3.18304L8.932 2.18904ZM2.8 8.32104L6.951 4.17004L8.932 6.15104L4.781 10.302H2.8V8.32104ZM13.3 13.102H0.7C0.514348 13.102 0.336301 13.1758 0.205025 13.3071C0.0737498 13.4383 0 13.6164 0 13.802C0 13.9877 0.0737498 14.1657 0.205025 14.297C0.336301 14.4283 0.514348 14.502 0.7 14.502H13.3C13.4857 14.502 13.6637 14.4283 13.795 14.297C13.9263 14.1657 14 13.9877 14 13.802C14 13.6164 13.9263 13.4383 13.795 13.3071C13.6637 13.1758 13.4857 13.102 13.3 13.102Z" fill="black"/>
</g>
</svg>
