<svg width="24" height="24" viewBox="0 0 24 24" fill="none" xmlns="http://www.w3.org/2000/svg">
<g id="Icon/Filter">
<path id="Vector" d="M8 5.00062C7.73478 5.00062 7.48043 5.10598 7.29289 5.29351C7.10536 5.48105 7 5.7354 7 6.00062C7 6.26584 7.10536 6.52019 7.29289 6.70773C7.48043 6.89526 7.73478 7.00062 8 7.00062C8.26522 7.00062 8.51957 6.89526 8.70711 6.70773C8.89464 6.52019 9 6.26584 9 6.00062C9 5.7354 8.89464 5.48105 8.70711 5.29351C8.51957 5.10598 8.26522 5.00062 8 5.00062ZM5.17 5.00062C5.3766 4.41509 5.75974 3.90805 6.2666 3.54941C6.77346 3.19076 7.37909 2.99817 8 2.99817C8.62091 2.99817 9.22654 3.19076 9.7334 3.54941C10.2403 3.90805 10.6234 4.41509 10.83 5.00062H20C20.2652 5.00062 20.5196 5.10598 20.7071 5.29351C20.8946 5.48105 21 5.7354 21 6.00062C21 6.26584 20.8946 6.52019 20.7071 6.70773C20.5196 6.89526 20.2652 7.00062 20 7.00062H10.83C10.6234 7.58615 10.2403 8.09319 9.7334 8.45183C9.22654 8.81047 8.62091 9.00307 8 9.00307C7.37909 9.00307 6.77346 8.81047 6.2666 8.45183C5.75974 8.09319 5.3766 7.58615 5.17 7.00062H4C3.73478 7.00062 3.48043 6.89526 3.29289 6.70773C3.10536 6.52019 3 6.26584 3 6.00062C3 5.7354 3.10536 5.48105 3.29289 5.29351C3.48043 5.10598 3.73478 5.00062 4 5.00062H5.17ZM15 11.0006C14.7348 11.0006 14.4804 11.106 14.2929 11.2935C14.1054 11.481 14 11.7354 14 12.0006C14 12.2658 14.1054 12.5202 14.2929 12.7077C14.4804 12.8953 14.7348 13.0006 15 13.0006C15.2652 13.0006 15.5196 12.8953 15.7071 12.7077C15.8946 12.5202 16 12.2658 16 12.0006C16 11.7354 15.8946 11.481 15.7071 11.2935C15.5196 11.106 15.2652 11.0006 15 11.0006ZM12.17 11.0006C12.3766 10.4151 12.7597 9.90805 13.2666 9.54941C13.7735 9.19076 14.3791 8.99817 15 8.99817C15.6209 8.99817 16.2265 9.19076 16.7334 9.54941C17.2403 9.90805 17.6234 10.4151 17.83 11.0006H20C20.2652 11.0006 20.5196 11.106 20.7071 11.2935C20.8946 11.481 21 11.7354 21 12.0006C21 12.2658 20.8946 12.5202 20.7071 12.7077C20.5196 12.8953 20.2652 13.0006 20 13.0006H17.83C17.6234 13.5862 17.2403 14.0932 16.7334 14.4518C16.2265 14.8105 15.6209 15.0031 15 15.0031C14.3791 15.0031 13.7735 14.8105 13.2666 14.4518C12.7597 14.0932 12.3766 13.5862 12.17 13.0006H4C3.73478 13.0006 3.48043 12.8953 3.29289 12.7077C3.10536 12.5202 3 12.2658 3 12.0006C3 11.7354 3.10536 11.481 3.29289 11.2935C3.48043 11.106 3.73478 11.0006 4 11.0006H12.17ZM8 17.0006C7.73478 17.0006 7.48043 17.106 7.29289 17.2935C7.10536 17.481 7 17.7354 7 18.0006C7 18.2658 7.10536 18.5202 7.29289 18.7077C7.48043 18.8953 7.73478 19.0006 8 19.0006C8.26522 19.0006 8.51957 18.8953 8.70711 18.7077C8.89464 18.5202 9 18.2658 9 18.0006C9 17.7354 8.89464 17.481 8.70711 17.2935C8.51957 17.106 8.26522 17.0006 8 17.0006ZM5.17 17.0006C5.3766 16.4151 5.75974 15.9081 6.2666 15.5494C6.77346 15.1908 7.37909 14.9982 8 14.9982C8.62091 14.9982 9.22654 15.1908 9.7334 15.5494C10.2403 15.9081 10.6234 16.4151 10.83 17.0006H20C20.2652 17.0006 20.5196 17.106 20.7071 17.2935C20.8946 17.481 21 17.7354 21 18.0006C21 18.2658 20.8946 18.5202 20.7071 18.7077C20.5196 18.8953 20.2652 19.0006 20 19.0006H10.83C10.6234 19.5862 10.2403 20.0932 9.7334 20.4518C9.22654 20.8105 8.62091 21.0031 8 21.0031C7.37909 21.0031 6.77346 20.8105 6.2666 20.4518C5.75974 20.0932 5.3766 19.5862 5.17 19.0006H4C3.73478 19.0006 3.48043 18.8953 3.29289 18.7077C3.10536 18.5202 3 18.2658 3 18.0006C3 17.7354 3.10536 17.481 3.29289 17.2935C3.48043 17.106 3.73478 17.0006 4 17.0006H5.17Z" fill="#1B1D1F"/>
</g>
</svg>
