<svg width="20" height="20" viewBox="0 0 20 20" fill="none" xmlns="http://www.w3.org/2000/svg">
<g id="lock,pad lock,safe,security,protected,padlock, / 24 / Outline">
<path id="Vector" d="M10.0007 10.8334C9.74694 10.8304 9.49841 10.9052 9.28852 11.0478C9.07863 11.1903 8.91744 11.3938 8.82666 11.6307C8.73588 11.8676 8.71987 12.1267 8.78077 12.373C8.84168 12.6193 8.97658 12.841 9.16732 13.0084V14.1667C9.16732 14.3877 9.25512 14.5997 9.4114 14.7559C9.56768 14.9122 9.77964 15 10.0007 15C10.2217 15 10.4336 14.9122 10.5899 14.7559C10.7462 14.5997 10.834 14.3877 10.834 14.1667V13.0084C11.0247 12.841 11.1596 12.6193 11.2205 12.373C11.2814 12.1267 11.2654 11.8676 11.1746 11.6307C11.0839 11.3938 10.9227 11.1903 10.7128 11.0478C10.5029 10.9052 10.2544 10.8304 10.0007 10.8334V10.8334ZM14.1673 7.50002V5.83335C14.1673 4.72829 13.7283 3.66848 12.9469 2.88708C12.1655 2.10567 11.1057 1.66669 10.0007 1.66669C8.89558 1.66669 7.83577 2.10567 7.05437 2.88708C6.27297 3.66848 5.83398 4.72829 5.83398 5.83335V7.50002C5.17094 7.50002 4.53506 7.76341 4.06622 8.23225C3.59738 8.70109 3.33398 9.33698 3.33398 10V15.8334C3.33398 16.4964 3.59738 17.1323 4.06622 17.6011C4.53506 18.07 5.17094 18.3334 5.83398 18.3334H14.1673C14.8304 18.3334 15.4662 18.07 15.9351 17.6011C16.4039 17.1323 16.6673 16.4964 16.6673 15.8334V10C16.6673 9.33698 16.4039 8.70109 15.9351 8.23225C15.4662 7.76341 14.8304 7.50002 14.1673 7.50002ZM7.50065 5.83335C7.50065 5.17031 7.76404 4.53443 8.23288 4.06559C8.70172 3.59675 9.33761 3.33335 10.0007 3.33335C10.6637 3.33335 11.2996 3.59675 11.7684 4.06559C12.2373 4.53443 12.5007 5.17031 12.5007 5.83335V7.50002H7.50065V5.83335ZM15.0007 15.8334C15.0007 16.0544 14.9129 16.2663 14.7566 16.4226C14.6003 16.5789 14.3883 16.6667 14.1673 16.6667H5.83398C5.61297 16.6667 5.40101 16.5789 5.24473 16.4226C5.08845 16.2663 5.00065 16.0544 5.00065 15.8334V10C5.00065 9.77901 5.08845 9.56705 5.24473 9.41077C5.40101 9.25448 5.61297 9.16669 5.83398 9.16669H14.1673C14.3883 9.16669 14.6003 9.25448 14.7566 9.41077C14.9129 9.56705 15.0007 9.77901 15.0007 10V15.8334Z" fill="#8A8A99"/>
</g>
</svg>
