<svg width="150" height="66" viewBox="0 0 150 66" fill="none" xmlns="http://www.w3.org/2000/svg">
<path d="M22.9683 0.142099C11.5552 1.2471 6.21959 7.16676 5.71445 19.306L5.60395 21.8317L2.79408 21.8791L0 21.9107V22.621V23.3314H2.76251H5.52502V43.9318V64.5322H11.9183H18.3115L18.3431 43.9634L18.3904 23.4103H23.8365H29.2826L29.3299 43.9634L29.3615 64.5322H35.7548H42.148V43.2214V21.9107H30.3087C19.748 21.9107 18.4536 21.8791 18.3588 21.6739C18.2168 21.295 18.5956 13.9389 18.864 11.8393C19.5743 6.29855 20.8372 3.29925 22.8262 2.33632C24.1364 1.6891 25.8413 1.94168 26.4412 2.87304C26.8989 3.5834 27.0252 4.32533 27.2147 7.94027C27.4514 11.9656 27.6093 12.7234 28.6669 14.3019C30.2613 16.7172 32.6607 17.9642 35.6758 17.9642C38.1068 17.9642 39.9064 17.2381 41.5166 15.6121C43.3951 13.7179 44.1212 11.7131 43.9949 8.80848C43.7739 3.63075 40.2379 0.852458 32.9291 0.142099C30.9875 -0.04733 24.8941 -0.04733 22.9683 0.142099Z" fill="#FF2D1D"/>
<path d="M141.362 5.24087C138.173 6.01437 136.026 9.18731 136.531 12.3918C137.099 16.0383 140.557 18.4851 144.108 17.7432C145.545 17.4433 146.366 17.0013 147.392 15.9752C148.876 14.4913 149.554 12.4076 149.191 10.4502C148.513 6.72473 144.961 4.37265 141.362 5.24087Z" fill="#FF2D1D"/>
<path d="M105.26 16.102L105.212 21.8322L102.497 21.8795L99.7661 21.9111V22.6215V23.3318L102.497 23.3634L105.212 23.4108L105.307 36.9076C105.37 48.7311 105.417 50.657 105.67 52.3776C106.838 60.5231 109.648 64.2012 115.71 65.5272C116.973 65.8113 117.746 65.8587 120.682 65.8587C123.776 65.8745 124.313 65.8271 125.576 65.5114C126.349 65.322 127.486 64.9115 128.102 64.6116C129.254 64.0433 131.069 62.7015 130.99 62.4647C130.959 62.3858 129.633 61.2177 128.023 59.8601L125.102 57.3975L124.976 58.171C124.108 63.0646 123.508 64.217 121.74 64.217C119.94 64.217 119.167 62.8594 118.63 58.7709C118.204 55.5506 118.078 50.3413 118.078 36.7813V23.3318H125.418H132.758V22.6215V21.9111H125.418H118.078V16.1493V10.3875H111.684H105.291L105.26 16.102Z" fill="#FF2D1D"/>
<path d="M77.0029 20.7267C72.1882 21.516 68.3838 23.9944 65.7003 28.1145C63.6797 31.2243 62.3063 35.2339 61.1855 41.1693C60.9961 42.2427 60.9645 41.3903 60.9487 32.1241L60.933 21.9107H54.5397H48.1465V43.2214V64.5322H54.5239H60.9014L60.9803 57.697C61.0277 52.9455 61.1382 50.183 61.3118 48.5886C62.6536 36.7493 65.9055 28.8722 70.7991 25.6361C72.8512 24.2627 75.8505 23.6629 78.0289 24.1838C79.7654 24.5942 80.7757 25.1625 82.0859 26.4885C84.4064 28.809 85.685 32.203 86.4427 38.0437C86.648 39.6381 86.7111 42.1954 86.7742 52.2509L86.8532 64.5322H93.2464H99.6239L99.5607 52.2509C99.4976 39.6539 99.466 39.1803 98.803 35.96C97.0981 27.6251 92.4255 22.4947 85.1641 20.9635C83.0804 20.5215 78.9603 20.3952 77.0029 20.7267Z" fill="#FF2D1D"/>
<path d="M136.389 43.2214V64.5322H142.861H149.333V43.2214V21.9107H142.861H136.389V43.2214Z" fill="#FF2D1D"/>
</svg>
