<svg width="19" height="18" viewBox="0 0 19 18" fill="none" xmlns="http://www.w3.org/2000/svg">
<g id="Group">
<path id="Vector" fill-rule="evenodd" clip-rule="evenodd" d="M11 17C11 16.7348 11.1054 16.4804 11.2929 16.2929C11.4804 16.1054 11.7348 16 12 16H17V2H12C11.7348 2 11.4804 1.89464 11.2929 1.70711C11.1054 1.51957 11 1.26522 11 1C11 0.734784 11.1054 0.48043 11.2929 0.292893C11.4804 0.105357 11.7348 0 12 0H17C17.5304 0 18.0391 0.210714 18.4142 0.585786C18.7893 0.960859 19 1.46957 19 2V16C19 16.5304 18.7893 17.0391 18.4142 17.4142C18.0391 17.7893 17.5304 18 17 18H12C11.7348 18 11.4804 17.8946 11.2929 17.7071C11.1054 17.5196 11 17.2652 11 17Z" fill="#8A8A99"/>
<path id="Vector_2" d="M0.285999 9.7C0.103083 9.51408 0.000395682 9.26382 0 9.00301V8.997C0.000522477 8.73278 0.105905 8.47958 0.292999 8.293L4.293 4.29301C4.38525 4.19749 4.49559 4.12131 4.6176 4.0689C4.7396 4.01649 4.87082 3.98891 5.0036 3.98775C5.13638 3.9866 5.26806 4.0119 5.39095 4.06218C5.51385 4.11246 5.6255 4.18672 5.71939 4.28061C5.81329 4.3745 5.88754 4.48615 5.93782 4.60905C5.9881 4.73195 6.0134 4.86363 6.01225 4.99641C6.0111 5.12919 5.98351 5.26041 5.9311 5.38241C5.87869 5.50441 5.80251 5.61476 5.707 5.707L3.414 8H13C13.2652 8 13.5196 8.10536 13.7071 8.2929C13.8946 8.48043 14 8.73479 14 9C14 9.26522 13.8946 9.51957 13.7071 9.70711C13.5196 9.89465 13.2652 10 13 10H3.414L5.707 12.293C5.88916 12.4816 5.98995 12.7342 5.98767 12.9964C5.9854 13.2586 5.88023 13.5094 5.69482 13.6948C5.50941 13.8802 5.2586 13.9854 4.9964 13.9877C4.7342 13.99 4.4816 13.8892 4.293 13.707L0.292999 9.707L0.285999 9.7Z" fill="#8A8A99"/>
</g>
</svg>
