<?xml version="1.0" standalone="no"?>
<!DOCTYPE svg PUBLIC "-//W3C//DTD SVG 20010904//EN"
 "http://www.w3.org/TR/2001/REC-SVG-20010904/DTD/svg10.dtd">
<svg version="1.0" xmlns="http://www.w3.org/2000/svg"
 width="1920.000000pt" height="1080.000000pt" viewBox="0 0 1920.000000 1080.000000"
 preserveAspectRatio="xMidYMid meet">

<g transform="translate(0.000000,1080.000000) scale(0.100000,-0.100000)"
fill="#000000" stroke="none">
<path d="M10085 7707 c-90 -30 -189 -119 -226 -203 -87 -195 -5 -416 189 -507
60 -28 77 -32 157 -32 80 0 97 4 157 32 193 91 276 312 189 508 -28 63 -110
146 -178 181 -49 24 -70 29 -153 31 -59 2 -110 -2 -135 -10z"/>
<path d="M11449 7701 c-100 -40 -170 -107 -217 -209 -22 -47 -26 -71 -27 -142
0 -102 19 -164 73 -235 172 -227 523 -193 649 63 25 52 28 67 28 162 0 99 -2
110 -32 171 -39 79 -102 140 -181 177 -76 36 -222 42 -293 13z"/>
<path d="M4505 6694 c-500 -68 -849 -319 -995 -718 -75 -205 -86 -450 -29
-656 85 -307 353 -559 715 -673 45 -14 254 -69 465 -122 452 -114 517 -134
628 -188 148 -73 221 -180 221 -324 0 -149 -84 -284 -220 -353 -251 -128 -672
-118 -918 21 -81 46 -180 150 -220 231 -30 61 -53 140 -67 231 l-6 37 -359 0
-360 0 0 -42 c0 -24 7 -86 15 -138 91 -567 509 -926 1182 -1015 155 -21 460
-21 615 0 574 76 954 365 1069 813 28 110 40 269 28 389 -39 413 -288 694
-759 858 -58 20 -295 83 -528 140 -434 108 -535 139 -622 195 -208 133 -230
406 -48 576 120 113 355 172 578 144 337 -42 544 -224 605 -533 l5 -27 358 2
357 3 -3 40 c-5 72 -31 199 -58 280 -94 291 -307 533 -593 677 -154 77 -362
136 -563 157 -130 15 -370 12 -493 -5z"/>
<path d="M6570 6300 l0 -330 535 0 535 0 0 -1445 0 -1445 370 0 370 0 0 1445
0 1445 530 0 530 0 0 330 0 330 -1435 0 -1435 0 0 -330z"/>
<path d="M9860 4855 l0 -1775 370 0 370 0 0 1775 0 1775 -370 0 -370 0 0
-1775z"/>
<path d="M11250 4855 l0 -1775 370 0 370 0 0 1775 0 1775 -370 0 -370 0 0
-1775z"/>
<path d="M12640 4855 l0 -1775 1235 0 1235 0 0 330 0 330 -865 0 -865 0 0
1445 0 1445 -370 0 -370 0 0 -1775z"/>
</g>
</svg>
