<svg width="48" height="38" viewBox="0 0 48 38" fill="none" xmlns="http://www.w3.org/2000/svg">
<g id="g13">
<g id="g15">
<path id="XMLID_1775_" d="M8.7355 36.9533V34.4975C8.7355 33.5561 8.15868 32.9422 7.16984 32.9422C6.67542 32.9422 6.1398 33.1059 5.76898 33.638C5.48057 33.1878 5.06855 32.9422 4.45052 32.9422C4.0385 32.9422 3.62649 33.065 3.29688 33.5152V33.0241H2.43164V36.9533H3.29688V34.784C3.29688 34.0882 3.66769 33.7608 4.24451 33.7608C4.82134 33.7608 5.10975 34.1291 5.10975 34.784V36.9533H5.97499V34.784C5.97499 34.0882 6.387 33.7608 6.92262 33.7608C7.49945 33.7608 7.78786 34.1291 7.78786 34.784V36.9533H8.7355V36.9533ZM21.5492 33.0241H20.1484V31.8371H19.2831V33.0241H18.5003V33.8017H19.2831V35.6026C19.2831 36.503 19.6539 37.0351 20.6428 37.0351C21.0136 37.0351 21.4256 36.9123 21.714 36.7486L21.4668 36.0119C21.2196 36.1756 20.9312 36.2165 20.7252 36.2165C20.3132 36.2165 20.1484 35.971 20.1484 35.5617V33.8017H21.5492V33.0241V33.0241ZM28.8831 32.9422C28.3887 32.9422 28.0591 33.1878 27.8531 33.5152V33.0241H26.9879V36.9533H27.8531V34.7431C27.8531 34.0882 28.1415 33.7199 28.6771 33.7199C28.8419 33.7199 29.0479 33.7608 29.2127 33.8017L29.46 32.9831C29.2952 32.9422 29.0479 32.9422 28.8831 32.9422V32.9422ZM17.7999 33.3515C17.3879 33.065 16.811 32.9422 16.193 32.9422C15.2042 32.9422 14.5449 33.4333 14.5449 34.211C14.5449 34.8659 15.0394 35.2342 15.9046 35.357L16.3166 35.3979C16.7698 35.4798 17.017 35.6026 17.017 35.8072C17.017 36.0937 16.6874 36.2984 16.1106 36.2984C15.5338 36.2984 15.0806 36.0937 14.7922 35.8891L14.3801 36.544C14.8334 36.8714 15.4514 37.0351 16.0694 37.0351C17.2231 37.0351 17.8823 36.503 17.8823 35.7663C17.8823 35.0705 17.3466 34.7021 16.5226 34.5794L16.1106 34.5384C15.7398 34.4975 15.4514 34.4156 15.4514 34.1701C15.4514 33.8836 15.7398 33.7199 16.193 33.7199C16.6874 33.7199 17.1818 33.9245 17.4291 34.0473L17.7999 33.3515V33.3515ZM40.7904 32.9422C40.296 32.9422 39.9664 33.1878 39.7604 33.5152V33.0241H38.8951V36.9533H39.7604V34.7431C39.7604 34.0882 40.0488 33.7199 40.5844 33.7199C40.7492 33.7199 40.9552 33.7608 41.12 33.8017L41.3672 32.9831C41.2024 32.9422 40.9552 32.9422 40.7904 32.9422V32.9422ZM29.7484 34.9887C29.7484 36.1756 30.5724 37.0351 31.8497 37.0351C32.4265 37.0351 32.8385 36.9123 33.2505 36.5849L32.8385 35.8891C32.5089 36.1347 32.1793 36.2575 31.8084 36.2575C31.108 36.2575 30.6136 35.7663 30.6136 34.9887C30.6136 34.2519 31.108 33.7608 31.8084 33.7199C32.1793 33.7199 32.5089 33.8426 32.8385 34.0882L33.2505 33.3924C32.8385 33.065 32.4265 32.9422 31.8497 32.9422C30.5724 32.9422 29.7484 33.8017 29.7484 34.9887V34.9887ZM37.7415 34.9887V33.0241H36.8763V33.5152C36.5879 33.1468 36.1758 32.9422 35.6402 32.9422C34.5278 32.9422 33.6625 33.8017 33.6625 34.9887C33.6625 36.1756 34.5278 37.0351 35.6402 37.0351C36.217 37.0351 36.6291 36.8305 36.8763 36.4621V36.9533H37.7415V34.9887ZM34.569 34.9887C34.569 34.2929 35.0222 33.7199 35.7638 33.7199C36.4642 33.7199 36.9587 34.2519 36.9587 34.9887C36.9587 35.6845 36.4642 36.2575 35.7638 36.2575C35.0222 36.2165 34.569 35.6845 34.569 34.9887ZM24.2273 32.9422C23.0737 32.9422 22.2497 33.7608 22.2497 34.9887C22.2497 36.2165 23.0737 37.0351 24.2685 37.0351C24.8454 37.0351 25.4222 36.8714 25.8754 36.503L25.4634 35.8891C25.1338 36.1347 24.7218 36.2984 24.3097 36.2984C23.7741 36.2984 23.2385 36.0528 23.1149 35.357H26.0402C26.0402 35.2342 26.0402 35.1524 26.0402 35.0296C26.0814 33.7608 25.3398 32.9422 24.2273 32.9422V32.9422ZM24.2273 33.6789C24.763 33.6789 25.1338 34.0064 25.2162 34.6203H23.1561C23.2385 34.0882 23.6093 33.6789 24.2273 33.6789ZM45.6934 34.9887V31.4688H44.8282V33.5152C44.5398 33.1468 44.1278 32.9422 43.5921 32.9422C42.4797 32.9422 41.6145 33.8017 41.6145 34.9887C41.6145 36.1756 42.4797 37.0351 43.5921 37.0351C44.169 37.0351 44.581 36.8305 44.8282 36.4621V36.9533H45.6934V34.9887ZM42.5209 34.9887C42.5209 34.2929 42.9741 33.7199 43.7157 33.7199C44.4162 33.7199 44.9106 34.2519 44.9106 34.9887C44.9106 35.6845 44.4162 36.2575 43.7157 36.2575C42.9741 36.2165 42.5209 35.6845 42.5209 34.9887ZM13.5973 34.9887V33.0241H12.7321V33.5152C12.4437 33.1468 12.0316 32.9422 11.496 32.9422C10.3836 32.9422 9.51833 33.8017 9.51833 34.9887C9.51833 36.1756 10.3836 37.0351 11.496 37.0351C12.0728 37.0351 12.4849 36.8305 12.7321 36.4621V36.9533H13.5973V34.9887ZM10.3836 34.9887C10.3836 34.2929 10.8368 33.7199 11.5784 33.7199C12.2788 33.7199 12.7733 34.2519 12.7733 34.9887C12.7733 35.6845 12.2788 36.2575 11.5784 36.2575C10.8368 36.2165 10.3836 35.6845 10.3836 34.9887Z" fill="#1C1733"/>
</g>
<g id="XMLID_328_">
<path id="rect19" d="M30.4903 3.15137H17.5117V26.3173H30.4903V3.15137Z" fill="#FF5F00"/>
<path id="XMLID_330_" d="M18.3348 14.7345C18.3348 10.0277 20.5596 5.85289 23.9794 3.15156C21.4661 1.18695 18.2936 0 14.8326 0C6.63347 0 0 6.58961 0 14.7345C0 22.8794 6.63347 29.4691 14.8326 29.4691C18.2936 29.4691 21.4661 28.2821 23.9794 26.3175C20.5596 23.6571 18.3348 19.4414 18.3348 14.7345Z" fill="#EB001B"/>
<path id="path22" d="M48.0009 14.7345C48.0009 22.8794 41.3674 29.4691 33.1683 29.4691C29.7073 29.4691 26.5348 28.2821 24.0215 26.3175C27.4824 23.6162 29.6661 19.4414 29.6661 14.7345C29.6661 10.0277 27.4412 5.85289 24.0215 3.15156C26.5348 1.18695 29.7073 0 33.1683 0C41.3674 0 48.0009 6.63054 48.0009 14.7345Z" fill="#F79E1B"/>
</g>
</g>
</svg>
